<svg id="visual" viewBox="0 0 960 540" width="960" height="540" xmlns="http://www.w3.org/2000/svg" xmlns:xlink="http://www.w3.org/1999/xlink" version="1.1"><rect x="0" y="0" width="960" height="540" fill="#eee"></rect><path d="M0 257L32 251.2C64 245.3 128 233.7 192 230C256 226.3 320 230.7 384 238.5C448 246.3 512 257.7 576 272.3C640 287 704 305 768 301.3C832 297.7 896 272.3 928 259.7L960 247L960 541L928 541C896 541 832 541 768 541C704 541 640 541 576 541C512 541 448 541 384 541C320 541 256 541 192 541C128 541 64 541 32 541L0 541Z" fill="#0ab68b" stroke-linecap="round" stroke-linejoin="miter"></path></svg>